<mxfile host="65bd71144e">
    <diagram name="Страница — 1" id="PtERw0xOoVtdUdhSGjrE">
        <mxGraphModel dx="321" dy="1454" grid="1" gridSize="10" guides="1" tooltips="1" connect="1" arrows="1" fold="1" page="1" pageScale="1" pageWidth="827" pageHeight="1169" math="0" shadow="0">
            <root>
                <mxCell id="0"/>
                <mxCell id="1" parent="0"/>
                <mxCell id="79" style="edgeStyle=none;html=1;" parent="1" source="77" target="78" edge="1">
                    <mxGeometry relative="1" as="geometry"/>
                </mxCell>
                <mxCell id="77" value="Начало" style="rounded=1;whiteSpace=wrap;html=1;arcSize=50;" parent="1" vertex="1">
                    <mxGeometry x="10" y="-1160" width="200" height="30" as="geometry"/>
                </mxCell>
                <mxCell id="81" style="edgeStyle=none;html=1;" parent="1" source="78" target="80" edge="1">
                    <mxGeometry relative="1" as="geometry"/>
                </mxCell>
                <mxCell id="78" value="i = 1" style="rounded=0;whiteSpace=wrap;html=1;" parent="1" vertex="1">
                    <mxGeometry x="10" y="-1110" width="200" height="30" as="geometry"/>
                </mxCell>
                <mxCell id="83" style="edgeStyle=none;html=1;" parent="1" source="80" target="82" edge="1">
                    <mxGeometry relative="1" as="geometry"/>
                </mxCell>
                <mxCell id="80" value="Ввод матрицы&lt;br&gt;&lt;div&gt;&lt;font style=&quot;color: rgb(0, 0, 0);&quot;&gt;i &amp;gt; 5&lt;/font&gt;&lt;/div&gt;" style="shape=loopLimit;whiteSpace=wrap;html=1;" parent="1" vertex="1">
                    <mxGeometry x="10" y="-1060" width="200" height="40" as="geometry"/>
                </mxCell>
                <mxCell id="102" style="edgeStyle=none;html=1;" parent="1" source="82" target="101" edge="1">
                    <mxGeometry relative="1" as="geometry"/>
                </mxCell>
                <mxCell id="82" value="j = 1" style="rounded=0;whiteSpace=wrap;html=1;" parent="1" vertex="1">
                    <mxGeometry x="10" y="-1000" width="200" height="30" as="geometry"/>
                </mxCell>
                <mxCell id="89" style="edgeStyle=none;html=1;" parent="1" source="84" target="88" edge="1">
                    <mxGeometry relative="1" as="geometry"/>
                </mxCell>
                <mxCell id="84" value="Ввод matrix[i][j]" style="shape=parallelogram;perimeter=parallelogramPerimeter;whiteSpace=wrap;html=1;fixedSize=1;" parent="1" vertex="1">
                    <mxGeometry x="10" y="-890" width="200" height="30" as="geometry"/>
                </mxCell>
                <mxCell id="86" value="matrix - матрица инцедентности" style="strokeWidth=1;html=1;shape=mxgraph.flowchart.annotation_1;align=left;pointerEvents=1;" parent="1" vertex="1">
                    <mxGeometry x="240" y="-890" width="5" height="30" as="geometry"/>
                </mxCell>
                <mxCell id="87" value="" style="endArrow=none;html=1;rounded=0;entryX=0;entryY=0.5;entryDx=0;entryDy=0;entryPerimeter=0;dashed=1;" parent="1" target="86" edge="1">
                    <mxGeometry width="50" height="50" relative="1" as="geometry">
                        <mxPoint x="200" y="-875" as="sourcePoint"/>
                        <mxPoint x="290" y="-885" as="targetPoint"/>
                    </mxGeometry>
                </mxCell>
                <mxCell id="91" style="edgeStyle=none;html=1;" parent="1" source="88" edge="1">
                    <mxGeometry relative="1" as="geometry">
                        <mxPoint x="110" y="-760" as="targetPoint"/>
                    </mxGeometry>
                </mxCell>
                <mxCell id="170" style="edgeStyle=none;html=1;entryX=0.5;entryY=0;entryDx=0;entryDy=0;arcSize=0;" parent="1" source="88" target="168" edge="1">
                    <mxGeometry relative="1" as="geometry">
                        <Array as="points">
                            <mxPoint x="330" y="-810"/>
                        </Array>
                    </mxGeometry>
                </mxCell>
                <mxCell id="88" value="matrix[i][j] = 1" style="rhombus;whiteSpace=wrap;html=1;" parent="1" vertex="1">
                    <mxGeometry x="10" y="-840" width="200" height="60" as="geometry"/>
                </mxCell>
                <mxCell id="105" style="edgeStyle=none;html=1;" parent="1" source="94" target="104" edge="1">
                    <mxGeometry relative="1" as="geometry"/>
                </mxCell>
                <mxCell id="94" value="j = j + 1" style="rounded=0;whiteSpace=wrap;html=1;" parent="1" vertex="1">
                    <mxGeometry x="10" y="-690" width="200" height="30" as="geometry"/>
                </mxCell>
                <mxCell id="99" value="Да" style="text;html=1;align=center;verticalAlign=middle;resizable=0;points=[];autosize=1;strokeColor=none;fillColor=none;" parent="1" vertex="1">
                    <mxGeometry x="70" y="-790" width="40" height="30" as="geometry"/>
                </mxCell>
                <mxCell id="100" value="Нет" style="text;html=1;align=center;verticalAlign=middle;resizable=0;points=[];autosize=1;strokeColor=none;fillColor=none;" parent="1" vertex="1">
                    <mxGeometry x="200" y="-840" width="40" height="30" as="geometry"/>
                </mxCell>
                <mxCell id="103" style="edgeStyle=none;html=1;" parent="1" source="101" target="84" edge="1">
                    <mxGeometry relative="1" as="geometry"/>
                </mxCell>
                <mxCell id="101" value="Ввод ячейки&lt;br&gt;&lt;div&gt;&lt;font style=&quot;color: rgb(0, 0, 0);&quot;&gt;i &amp;gt; 5&lt;/font&gt;&lt;/div&gt;" style="shape=loopLimit;whiteSpace=wrap;html=1;" parent="1" vertex="1">
                    <mxGeometry x="10" y="-950" width="200" height="40" as="geometry"/>
                </mxCell>
                <mxCell id="107" style="edgeStyle=none;html=1;" parent="1" source="104" target="106" edge="1">
                    <mxGeometry relative="1" as="geometry"/>
                </mxCell>
                <mxCell id="104" value="&lt;span style=&quot;color: rgb(0, 0, 0);&quot;&gt;Ввод ячейки&lt;/span&gt;" style="shape=loopLimit;whiteSpace=wrap;html=1;direction=west;" parent="1" vertex="1">
                    <mxGeometry x="10" y="-640" width="200" height="40" as="geometry"/>
                </mxCell>
                <mxCell id="109" style="edgeStyle=none;html=1;" parent="1" source="106" target="108" edge="1">
                    <mxGeometry relative="1" as="geometry"/>
                </mxCell>
                <mxCell id="106" value="i = i + 1" style="rounded=0;whiteSpace=wrap;html=1;" parent="1" vertex="1">
                    <mxGeometry x="10" y="-580" width="200" height="30" as="geometry"/>
                </mxCell>
                <mxCell id="187" style="edgeStyle=none;html=1;" parent="1" source="108" target="134" edge="1">
                    <mxGeometry relative="1" as="geometry"/>
                </mxCell>
                <mxCell id="108" value="&lt;span style=&quot;color: rgb(0, 0, 0);&quot;&gt;Ввод матрицы&lt;/span&gt;" style="shape=loopLimit;whiteSpace=wrap;html=1;direction=west;" parent="1" vertex="1">
                    <mxGeometry x="10" y="-530" width="200" height="40" as="geometry"/>
                </mxCell>
                <mxCell id="133" style="edgeStyle=none;html=1;" parent="1" source="134" target="136" edge="1">
                    <mxGeometry relative="1" as="geometry"/>
                </mxCell>
                <mxCell id="134" value="i = 1" style="rounded=0;whiteSpace=wrap;html=1;" parent="1" vertex="1">
                    <mxGeometry x="10" y="-470" width="200" height="30" as="geometry"/>
                </mxCell>
                <mxCell id="175" style="edgeStyle=none;html=1;" parent="1" source="136" target="174" edge="1">
                    <mxGeometry relative="1" as="geometry"/>
                </mxCell>
                <mxCell id="136" value="Вывод матрицы&lt;br&gt;&lt;div&gt;&lt;font style=&quot;color: rgb(0, 0, 0);&quot;&gt;i &amp;gt; 5&lt;/font&gt;&lt;/div&gt;" style="shape=loopLimit;whiteSpace=wrap;html=1;" parent="1" vertex="1">
                    <mxGeometry x="10" y="-420" width="200" height="40" as="geometry"/>
                </mxCell>
                <mxCell id="165" style="edgeStyle=none;html=1;" parent="1" source="158" target="164" edge="1">
                    <mxGeometry relative="1" as="geometry"/>
                </mxCell>
                <mxCell id="158" value="&lt;span style=&quot;color: rgb(0, 0, 0);&quot;&gt;Вывод матрицы&lt;/span&gt;" style="shape=loopLimit;whiteSpace=wrap;html=1;direction=west;" parent="1" vertex="1">
                    <mxGeometry x="10" y="-40" width="200" height="40" as="geometry"/>
                </mxCell>
                <mxCell id="164" value="Конец" style="rounded=1;whiteSpace=wrap;html=1;arcSize=50;" parent="1" vertex="1">
                    <mxGeometry x="10" y="20" width="200" height="30" as="geometry"/>
                </mxCell>
                <mxCell id="171" style="edgeStyle=none;html=1;" parent="1" source="167" target="94" edge="1">
                    <mxGeometry relative="1" as="geometry"/>
                </mxCell>
                <mxCell id="167" value="&lt;span style=&quot;color: rgb(0, 0, 0);&quot;&gt;matrix[i][j] = 0&lt;/span&gt;" style="rounded=0;whiteSpace=wrap;html=1;" parent="1" vertex="1">
                    <mxGeometry x="10" y="-760" width="200" height="30" as="geometry"/>
                </mxCell>
                <mxCell id="168" value="&lt;span style=&quot;color: rgb(0, 0, 0);&quot;&gt;matrix[i][j] = 1&lt;/span&gt;" style="rounded=0;whiteSpace=wrap;html=1;" parent="1" vertex="1">
                    <mxGeometry x="230" y="-760" width="200" height="30" as="geometry"/>
                </mxCell>
                <mxCell id="172" value="" style="endArrow=none;html=1;" parent="1" edge="1">
                    <mxGeometry width="50" height="50" relative="1" as="geometry">
                        <mxPoint x="110" y="-710" as="sourcePoint"/>
                        <mxPoint x="330" y="-710" as="targetPoint"/>
                    </mxGeometry>
                </mxCell>
                <mxCell id="173" value="" style="endArrow=none;html=1;entryX=0.5;entryY=1;entryDx=0;entryDy=0;" parent="1" target="168" edge="1">
                    <mxGeometry width="50" height="50" relative="1" as="geometry">
                        <mxPoint x="330" y="-710" as="sourcePoint"/>
                        <mxPoint x="180" y="-730" as="targetPoint"/>
                    </mxGeometry>
                </mxCell>
                <mxCell id="177" style="edgeStyle=none;html=1;" parent="1" source="174" target="176" edge="1">
                    <mxGeometry relative="1" as="geometry"/>
                </mxCell>
                <mxCell id="174" value="j = 1" style="rounded=0;whiteSpace=wrap;html=1;" parent="1" vertex="1">
                    <mxGeometry x="10" y="-360" width="200" height="30" as="geometry"/>
                </mxCell>
                <mxCell id="179" style="edgeStyle=none;html=1;" parent="1" source="176" target="178" edge="1">
                    <mxGeometry relative="1" as="geometry"/>
                </mxCell>
                <mxCell id="176" value="Вывод ячейки&lt;br&gt;&lt;div&gt;&lt;font style=&quot;color: rgb(0, 0, 0);&quot;&gt;i &amp;gt; 5&lt;/font&gt;&lt;/div&gt;" style="shape=loopLimit;whiteSpace=wrap;html=1;" parent="1" vertex="1">
                    <mxGeometry x="10" y="-310" width="200" height="40" as="geometry"/>
                </mxCell>
                <mxCell id="181" style="edgeStyle=none;html=1;" parent="1" source="178" target="180" edge="1">
                    <mxGeometry relative="1" as="geometry"/>
                </mxCell>
                <mxCell id="178" value="Вывод matrix[i][j]" style="shape=parallelogram;perimeter=parallelogramPerimeter;whiteSpace=wrap;html=1;fixedSize=1;" parent="1" vertex="1">
                    <mxGeometry x="10" y="-250" width="200" height="30" as="geometry"/>
                </mxCell>
                <mxCell id="183" style="edgeStyle=none;html=1;" parent="1" source="180" target="182" edge="1">
                    <mxGeometry relative="1" as="geometry"/>
                </mxCell>
                <mxCell id="180" value="j = j + 1" style="rounded=0;whiteSpace=wrap;html=1;" parent="1" vertex="1">
                    <mxGeometry x="10" y="-200" width="200" height="30" as="geometry"/>
                </mxCell>
                <mxCell id="186" style="edgeStyle=none;html=1;" parent="1" source="182" target="184" edge="1">
                    <mxGeometry relative="1" as="geometry"/>
                </mxCell>
                <mxCell id="182" value="&lt;span style=&quot;color: rgb(0, 0, 0);&quot;&gt;Вывод ячейки&lt;/span&gt;" style="shape=loopLimit;whiteSpace=wrap;html=1;direction=west;" parent="1" vertex="1">
                    <mxGeometry x="10" y="-150" width="200" height="40" as="geometry"/>
                </mxCell>
                <mxCell id="185" style="edgeStyle=none;html=1;" parent="1" source="184" target="158" edge="1">
                    <mxGeometry relative="1" as="geometry"/>
                </mxCell>
                <mxCell id="184" value="i = i + 1" style="rounded=0;whiteSpace=wrap;html=1;" parent="1" vertex="1">
                    <mxGeometry x="10" y="-90" width="200" height="30" as="geometry"/>
                </mxCell>
                <mxCell id="188" style="edgeStyle=none;html=1;endArrow=none;endFill=0;" parent="1" source="190" target="196" edge="1">
                    <mxGeometry relative="1" as="geometry"/>
                </mxCell>
                <mxCell id="189" style="edgeStyle=none;html=1;endArrow=none;endFill=0;" parent="1" source="190" target="194" edge="1">
                    <mxGeometry relative="1" as="geometry"/>
                </mxCell>
                <mxCell id="200" style="edgeStyle=none;html=1;fillColor=#e51400;strokeColor=#B20000;endArrow=none;endFill=0;dashed=1;" parent="1" source="190" target="197" edge="1">
                    <mxGeometry relative="1" as="geometry"/>
                </mxCell>
                <mxCell id="190" value="1" style="ellipse;whiteSpace=wrap;html=1;aspect=fixed;" parent="1" vertex="1">
                    <mxGeometry x="560" y="-1160" width="40" height="40" as="geometry"/>
                </mxCell>
                <mxCell id="191" style="edgeStyle=none;html=1;endArrow=none;endFill=0;" parent="1" source="194" target="196" edge="1">
                    <mxGeometry relative="1" as="geometry"/>
                </mxCell>
                <mxCell id="192" style="edgeStyle=none;html=1;endArrow=none;endFill=0;" parent="1" source="194" target="197" edge="1">
                    <mxGeometry relative="1" as="geometry"/>
                </mxCell>
                <mxCell id="193" style="edgeStyle=none;html=1;endArrow=none;endFill=0;" parent="1" source="194" target="198" edge="1">
                    <mxGeometry relative="1" as="geometry"/>
                </mxCell>
                <mxCell id="194" value="3" style="ellipse;whiteSpace=wrap;html=1;aspect=fixed;" parent="1" vertex="1">
                    <mxGeometry x="560" y="-1080" width="40" height="40" as="geometry"/>
                </mxCell>
                <mxCell id="195" style="edgeStyle=none;html=1;endArrow=none;endFill=0;" parent="1" source="196" target="198" edge="1">
                    <mxGeometry relative="1" as="geometry"/>
                </mxCell>
                <mxCell id="201" style="edgeStyle=none;html=1;fillColor=#e51400;strokeColor=#B20000;endArrow=none;endFill=0;dashed=1;" parent="1" source="196" target="197" edge="1">
                    <mxGeometry relative="1" as="geometry"/>
                </mxCell>
                <mxCell id="196" value="2" style="ellipse;whiteSpace=wrap;html=1;aspect=fixed;" parent="1" vertex="1">
                    <mxGeometry x="660" y="-1160" width="40" height="40" as="geometry"/>
                </mxCell>
                <mxCell id="202" style="edgeStyle=none;html=1;fillColor=#e51400;strokeColor=#B20000;endArrow=none;endFill=0;dashed=1;" parent="1" source="197" target="198" edge="1">
                    <mxGeometry relative="1" as="geometry"/>
                </mxCell>
                <mxCell id="197" value="4" style="ellipse;whiteSpace=wrap;html=1;aspect=fixed;" parent="1" vertex="1">
                    <mxGeometry x="660" y="-1080" width="40" height="40" as="geometry"/>
                </mxCell>
                <mxCell id="203" style="edgeStyle=none;html=1;fillColor=#e51400;strokeColor=#B20000;endArrow=none;endFill=0;dashed=1;" parent="1" source="198" target="190" edge="1">
                    <mxGeometry relative="1" as="geometry"/>
                </mxCell>
                <mxCell id="198" value="5" style="ellipse;whiteSpace=wrap;html=1;aspect=fixed;" parent="1" vertex="1">
                    <mxGeometry x="610" y="-1020" width="40" height="40" as="geometry"/>
                </mxCell>
                <mxCell id="199" style="edgeStyle=none;html=1;endArrow=none;endFill=0;" parent="1" source="197" target="197" edge="1">
                    <mxGeometry relative="1" as="geometry"/>
                </mxCell>
            </root>
        </mxGraphModel>
    </diagram>
</mxfile>